<?xml version="1.0" encoding="UTF-8"?>
<svg width="64" height="64" viewBox="0 0 64 64" fill="none" xmlns="http://www.w3.org/2000/svg">
  <defs>
    <linearGradient id="madridGradient" x1="0%" y1="0%" x2="100%" y2="100%">
      <stop offset="0%" style="stop-color:#ff6b35;stop-opacity:1" />
      <stop offset="50%" style="stop-color:#f7931e;stop-opacity:1" />
      <stop offset="100%" style="stop-color:#ffd700;stop-opacity:1" />
    </linearGradient>
  </defs>
  
  <!-- Background circle -->
  <circle cx="32" cy="32" r="30" fill="url(#madridGradient)" stroke="#ffffff" stroke-width="2"/>
  
  <!-- Crown -->
  <path d="M16 36 L20 28 L24 32 L28 28 L32 32 L36 28 L40 32 L44 28 L48 36 L48 40 L16 40 Z" fill="white"/>
  
  <!-- Crown jewels -->
  <circle cx="24" cy="30" r="2" fill="#ffd700"/>
  <circle cx="32" cy="30" r="2" fill="#ffd700"/>
  <circle cx="40" cy="30" r="2" fill="#ffd700"/>
  
  <!-- Letter M -->
  <path d="M20 44 L20 52 L26 46 L32 52 L38 46 L44 52 L44 44 L38 48 L32 44 L26 48 Z" fill="white"/>
</svg> 