<?xml version="1.0" encoding="UTF-8"?>
<svg width="1920" height="1080" viewBox="0 0 1920 1080" xmlns="http://www.w3.org/2000/svg">
  <g stroke="rgba(0,255,255,0.3)" stroke-width="1" fill="none">
    <!-- Long A -->
    <path d="M200,200 L400,200 L400,400 L200,400 Z" />
    <path d="M300,200 L300,400" />
    <path d="M200,300 L400,300" />
    
    <!-- A Site -->
    <path d="M400,200 L600,200 L600,400 L400,400 Z" />
    <path d="M500,200 L500,400" />
    <path d="M400,300 L600,300" />
    
    <!-- Mid -->
    <path d="M600,200 L800,200 L800,400 L600,400 Z" />
    <path d="M700,200 L700,400" />
    <path d="M600,300 L800,300" />
    
    <!-- B Site -->
    <path d="M800,200 L1000,200 L1000,400 L800,400 Z" />
    <path d="M900,200 L900,400" />
    <path d="M800,300 L1000,300" />
    
    <!-- T Spawn -->
    <path d="M200,400 L400,400 L400,600 L200,600 Z" />
    <path d="M300,400 L300,600" />
    <path d="M200,500 L400,500" />
    
    <!-- CT Spawn -->
    <path d="M1000,400 L1200,400 L1200,600 L1000,600 Z" />
    <path d="M1100,400 L1100,600" />
    <path d="M1000,500 L1200,500" />
    
    <!-- Tunnels -->
    <path d="M400,400 L600,400 L600,600 L400,600 Z" />
    <path d="M500,400 L500,600" />
    <path d="M400,500 L600,500" />
    
    <!-- Mid to B -->
    <path d="M600,400 L800,400 L800,600 L600,600 Z" />
    <path d="M700,400 L700,600" />
    <path d="M600,500 L800,500" />
    
    <!-- Conexões -->
    <path d="M400,200 L400,400" />
    <path d="M600,200 L600,400" />
    <path d="M800,200 L800,400" />
    <path d="M400,400 L400,600" />
    <path d="M600,400 L600,600" />
    <path d="M800,400 L800,600" />
    
    <!-- Estruturas adicionais -->
    <path d="M300,150 L300,200" />
    <path d="M500,150 L500,200" />
    <path d="M700,150 L700,200" />
    <path d="M900,150 L900,200" />
    <path d="M1100,150 L1100,200" />
    
    <!-- Detalhes do mapa -->
    <path d="M250,250 L350,250" />
    <path d="M450,250 L550,250" />
    <path d="M650,250 L750,250" />
    <path d="M850,250 L950,250" />
    <path d="M1050,250 L1150,250" />
  </g>
</svg> 