<?xml version="1.0" encoding="UTF-8"?>
<svg width="24" height="24" viewBox="0 0 24 24" fill="none" xmlns="http://www.w3.org/2000/svg">
  <path d="M19.27 5.33C17.94 4.71 16.5 4.26 15 4C14.89 4.21 14.76 4.48 14.67 4.69C13.06 4.45 11.47 4.45 9.88 4.69C9.79 4.48 9.66 4.21 9.54 4C8.04 4.26 6.6 4.71 5.27 5.33C2.86 8.98 2.13 12.53 2.5 16.03C4.21 17.27 5.87 18 7.5 18.47C7.81 18.04 8.08 17.58 8.32 17.1C7.83 16.92 7.36 16.69 6.92 16.42C7.03 16.34 7.14 16.26 7.24 16.17C10.2 17.54 13.41 17.54 16.34 16.17C16.45 16.25 16.56 16.34 16.66 16.42C16.22 16.69 15.75 16.92 15.26 17.1C15.5 17.58 15.77 18.04 16.08 18.47C17.71 18 19.37 17.27 21.08 16.03C21.51 11.93 20.35 8.41 19.27 5.33ZM8.57 13.83C7.61 13.83 6.82 12.95 6.82 11.87C6.82 10.79 7.59 9.9 8.57 9.9C9.55 9.9 10.34 10.79 10.32 11.87C10.32 12.95 9.55 13.83 8.57 13.83ZM15.01 13.83C14.05 13.83 13.26 12.95 13.26 11.87C13.26 10.79 14.03 9.9 15.01 9.9C15.99 9.9 16.78 10.79 16.76 11.87C16.76 12.95 15.99 13.83 15.01 13.83Z" fill="#5865F2"/>
</svg> 